<svg id="Calque_1" data-name="Calque 1" xmlns="http://www.w3.org/2000/svg" xmlns:xlink="http://www.w3.org/1999/xlink" viewBox="0 0 499.82 489.84"><defs><style>.cls-1{font-size:122.09px;fill:#143642;font-family:RedRose-Regular, Red Rose;}.cls-2{fill:#ffbd00;letter-spacing:0em;}.cls-3{fill:url(#Dégradé_sans_nom_55);}.cls-4{fill:#666;}.cls-5{opacity:0.75;}.cls-6{opacity:0.5;}.cls-7{opacity:0.25;}.cls-8{fill:url(#Dégradé_sans_nom_19);}.cls-9{fill:url(#Dégradé_sans_nom_30);}.cls-10{fill:url(#Dégradé_sans_nom_22);}.cls-11{fill:url(#Dégradé_sans_nom_22-2);}</style><radialGradient id="Dégradé_sans_nom_55" cx="252.78" cy="277.49" fx="262.5264522053877" fy="250.00716749048428" r="67.01" gradientUnits="userSpaceOnUse"><stop offset="0" stop-color="#fff"/><stop offset="0.06" stop-color="#fff5d9"/><stop offset="0.15" stop-color="#ffe8a6"/><stop offset="0.25" stop-color="#ffdd7a"/><stop offset="0.35" stop-color="#ffd354"/><stop offset="0.45" stop-color="#ffcb36"/><stop offset="0.56" stop-color="#ffc51e"/><stop offset="0.67" stop-color="#ffc00d"/><stop offset="0.8" stop-color="#ffbe03"/><stop offset="0.95" stop-color="#ffbd00"/></radialGradient><radialGradient id="Dégradé_sans_nom_19" cx="130.32" cy="65.72" fx="138.0974945585614" fy="43.79024786421603" r="53.47" gradientTransform="translate(13.32 139.74) rotate(-45.88)" gradientUnits="userSpaceOnUse"><stop offset="0" stop-color="#fff"/><stop offset="0.06" stop-color="#e4f3fe"/><stop offset="0.16" stop-color="#b9dffb"/><stop offset="0.27" stop-color="#93cff9"/><stop offset="0.39" stop-color="#75c1f8"/><stop offset="0.51" stop-color="#5db6f7"/><stop offset="0.64" stop-color="#4caff6"/><stop offset="0.78" stop-color="#42aaf5"/><stop offset="0.95" stop-color="#3fa9f5"/></radialGradient><radialGradient id="Dégradé_sans_nom_30" cx="-25.28" cy="122.63" fx="-18.594504713872734" fy="103.78387193809812" r="45.94" xlink:href="#Dégradé_sans_nom_19"/><radialGradient id="Dégradé_sans_nom_22" cx="412.63" cy="197.62" fx="420.6488120526043" fy="175.01407852129245" r="55.13" gradientUnits="userSpaceOnUse"><stop offset="0" stop-color="#fff"/><stop offset="0.02" stop-color="#fff6f6"/><stop offset="0.11" stop-color="#ffc3c5"/><stop offset="0.21" stop-color="#ff979a"/><stop offset="0.32" stop-color="#ff7176"/><stop offset="0.43" stop-color="#ff5359"/><stop offset="0.54" stop-color="#ff3b42"/><stop offset="0.66" stop-color="#ff2a32"/><stop offset="0.79" stop-color="#ff2028"/><stop offset="0.95" stop-color="#ff1d25"/></radialGradient><radialGradient id="Dégradé_sans_nom_22-2" cx="343.42" cy="47.4" fx="350.31756289931985" fy="27.95769417240058" r="47.4" xlink:href="#Dégradé_sans_nom_22"/></defs><text class="cls-1" transform="translate(0 455.65)">party<tspan class="cls-2" x="330.98" y="0">cls</tspan></text><circle class="cls-3" cx="252.78" cy="277.49" r="67.01"/><path class="cls-4" d="M345,224.83a151.19,151.19,0,0,0-43.28-25.26,138.17,138.17,0,0,0-96.91,0,151.52,151.52,0,0,0-43.28,25.25,114.15,114.15,0,0,1,40.87-31.06,123.33,123.33,0,0,1,101.72,0A114.36,114.36,0,0,1,345,224.83Z" transform="translate(-1.18 -6.5)"/><g class="cls-5"><path class="cls-4" d="M396.05,204.49a229.24,229.24,0,0,0-67.26-40.37,212.93,212.93,0,0,0-152.21,0,229.64,229.64,0,0,0-67.26,40.36,182.77,182.77,0,0,1,64.26-47.63,194.53,194.53,0,0,1,158.21,0A183,183,0,0,1,396.05,204.49Z" transform="translate(-1.18 -6.5)"/></g><g class="cls-6"><path class="cls-4" d="M440.94,182.92a315.59,315.59,0,0,0-42-30.7,285.39,285.39,0,0,0-46.18-22.72,278.31,278.31,0,0,0-200.2,0,285.44,285.44,0,0,0-46.18,22.73,315.53,315.53,0,0,0-42,30.68A242.13,242.13,0,0,1,149,120.79a256.36,256.36,0,0,1,207.4,0A242.33,242.33,0,0,1,440.94,182.92Z" transform="translate(-1.18 -6.5)"/></g><g class="cls-7"><path class="cls-4" d="M489,158a388.73,388.73,0,0,0-52.48-38.7,356.07,356.07,0,0,0-57.89-28.65,347.94,347.94,0,0,0-251.3.12,356.43,356.43,0,0,0-57.87,28.68A389.51,389.51,0,0,0,17,158.1,305.54,305.54,0,0,1,123.12,80.57a322.11,322.11,0,0,1,259.71-.09A305.39,305.39,0,0,1,489,158Z" transform="translate(-1.18 -6.5)"/></g><circle class="cls-8" cx="151.22" cy="91.93" r="53.47"/><circle class="cls-9" cx="83.76" cy="243.25" r="45.94"/><circle class="cls-10" cx="412.63" cy="197.62" r="55.13"/><circle class="cls-11" cx="343.42" cy="47.4" r="47.4"/></svg>