<svg id="_Calque_" data-name="&lt;Calque&gt;" xmlns="http://www.w3.org/2000/svg" xmlns:xlink="http://www.w3.org/1999/xlink" width="492.77" height="511.29" viewBox="0 0 492.77 511.29"><defs><radialGradient id="Dégradé_sans_nom_3" cx="245.7" cy="278.56" r="67.01" gradientUnits="userSpaceOnUse"><stop offset="0" stop-color="#fff"/><stop offset="0.03" stop-color="#fffcf2"/><stop offset="0.14" stop-color="#fef4c7"/><stop offset="0.25" stop-color="#fdeda1"/><stop offset="0.37" stop-color="#fde783"/><stop offset="0.5" stop-color="#fde26b"/><stop offset="0.63" stop-color="#fcdf5a"/><stop offset="0.77" stop-color="#fcdd50"/><stop offset="0.95" stop-color="#fcdc4d"/></radialGradient><linearGradient id="Dégradé_sans_nom_12" x1="156.13" y1="234.13" x2="344.13" y2="234.13" gradientUnits="userSpaceOnUse"><stop offset="0" stop-color="#5c80bc"/><stop offset="0.03" stop-color="#597ab0"/><stop offset="0.19" stop-color="#4d5f79"/><stop offset="0.33" stop-color="#444b51"/><stop offset="0.43" stop-color="#3f3f39"/><stop offset="0.5" stop-color="#3d3b30"/><stop offset="0.56" stop-color="#463d32"/><stop offset="0.65" stop-color="#5e4336"/><stop offset="0.76" stop-color="#864c3e"/><stop offset="0.89" stop-color="#bd5848"/><stop offset="1" stop-color="#ee6352"/></linearGradient><linearGradient id="Dégradé_sans_nom_180" x1="-254.13" y1="611.7" x2="-160.13" y2="611.7" gradientTransform="translate(-408.57 121) rotate(-90)" gradientUnits="userSpaceOnUse"><stop offset="0" stop-color="#5c80bc" stop-opacity="0"/><stop offset="0.4" stop-color="#5c80bc" stop-opacity="0.01"/><stop offset="0.54" stop-color="#5c80bc" stop-opacity="0.05"/><stop offset="0.64" stop-color="#5c80bc" stop-opacity="0.11"/><stop offset="0.72" stop-color="#5c80bc" stop-opacity="0.2"/><stop offset="0.79" stop-color="#5c80bc" stop-opacity="0.32"/><stop offset="0.86" stop-color="#5c80bc" stop-opacity="0.46"/><stop offset="0.91" stop-color="#5c80bc" stop-opacity="0.63"/><stop offset="0.96" stop-color="#5c80bc" stop-opacity="0.83"/><stop offset="1" stop-color="#5c80bc"/></linearGradient><linearGradient id="Dégradé_sans_nom_179" x1="-254.13" y1="1569.5" x2="-160.13" y2="1569.5" gradientTransform="matrix(0, -1, -1, 0, 1866.63, 121)" gradientUnits="userSpaceOnUse"><stop offset="0" stop-color="#ee6352" stop-opacity="0"/><stop offset="0.38" stop-color="#ee6352" stop-opacity="0.01"/><stop offset="0.51" stop-color="#ee6352" stop-opacity="0.04"/><stop offset="0.61" stop-color="#ee6352" stop-opacity="0.09"/><stop offset="0.69" stop-color="#ee6352" stop-opacity="0.16"/><stop offset="0.76" stop-color="#ee6352" stop-opacity="0.25"/><stop offset="0.82" stop-color="#ee6352" stop-opacity="0.36"/><stop offset="0.87" stop-color="#ee6352" stop-opacity="0.5"/><stop offset="0.92" stop-color="#ee6352" stop-opacity="0.66"/><stop offset="0.96" stop-color="#ee6352" stop-opacity="0.83"/><stop offset="1" stop-color="#ee6352"/></linearGradient><linearGradient id="Dégradé_sans_nom_14" x1="111.66" y1="211.21" x2="389.51" y2="211.21" xlink:href="#Dégradé_sans_nom_12"/><linearGradient id="Dégradé_sans_nom_181" x1="-298.6" y1="589.7" x2="-159.68" y2="589.7" xlink:href="#Dégradé_sans_nom_180"/><linearGradient id="Dégradé_sans_nom_178" x1="-298.6" y1="1546.58" x2="-159.68" y2="1546.58" xlink:href="#Dégradé_sans_nom_179"/><linearGradient id="Dégradé_sans_nom_16" x1="63.54" y1="188.85" x2="435.54" y2="188.85" xlink:href="#Dégradé_sans_nom_12"/><linearGradient id="Dégradé_sans_nom_182" x1="-346.85" y1="565.11" x2="-160.85" y2="565.11" xlink:href="#Dégradé_sans_nom_180"/><linearGradient id="Dégradé_sans_nom_177" x1="-346.85" y1="1524.09" x2="-160.85" y2="1524.09" xlink:href="#Dégradé_sans_nom_179"/><linearGradient id="Dégradé_sans_nom_18" x1="18.13" y1="165.85" x2="482.13" y2="165.85" xlink:href="#Dégradé_sans_nom_12"/><linearGradient id="Dégradé_sans_nom_175" x1="-392.85" y1="542.7" x2="-160.85" y2="542.7" xlink:href="#Dégradé_sans_nom_180"/><linearGradient id="Dégradé_sans_nom_176" x1="-392.85" y1="1500.5" x2="-160.85" y2="1500.5" xlink:href="#Dégradé_sans_nom_179"/><radialGradient id="Dégradé_sans_nom_185" cx="-646.93" cy="32.68" fx="-661.078964119841" r="45.1" gradientTransform="matrix(-0.66, -0.75, 0.75, -0.66, -279.79, -306.21)" gradientUnits="userSpaceOnUse"><stop offset="0" stop-color="#fff"/><stop offset="0.11" stop-color="#d5deee"/><stop offset="0.23" stop-color="#b0c2df"/><stop offset="0.35" stop-color="#92aad2"/><stop offset="0.48" stop-color="#7a97c8"/><stop offset="0.62" stop-color="#698ac1"/><stop offset="0.77" stop-color="#5f82bd"/><stop offset="0.95" stop-color="#5c80bc"/></radialGradient><radialGradient id="Dégradé_sans_nom_6" cx="-552.65" cy="-10.45" fx="-572.7623176511808" r="39.2" xlink:href="#Dégradé_sans_nom_185"/><radialGradient id="Dégradé_sans_nom_8" cx="438.7" cy="183.34" fx="417.3480287590081" fy="195.98666253858292" r="47.4" gradientUnits="userSpaceOnUse"><stop offset="0" stop-color="#fff"/><stop offset="0.02" stop-color="#fef8f7"/><stop offset="0.13" stop-color="#fad1cc"/><stop offset="0.25" stop-color="#f6afa6"/><stop offset="0.37" stop-color="#f39388"/><stop offset="0.49" stop-color="#f17e70"/><stop offset="0.62" stop-color="#ef6f5f"/><stop offset="0.77" stop-color="#e65"/><stop offset="0.95" stop-color="#ee6352"/></radialGradient><radialGradient id="Dégradé_sans_nom_8-2" cx="380.7" cy="81.55" fx="369.6251469678098" fy="97.92324060945376" r="39.92" xlink:href="#Dégradé_sans_nom_8"/><radialGradient id="Dégradé_sans_nom_187" cx="-682.67" cy="-188.95" fx="-693.6148552751386" fy="-166.96776400986184" r="31.33" xlink:href="#Dégradé_sans_nom_185"/><radialGradient id="Dégradé_sans_nom_6-2" cx="-582.83" cy="131.76" fx="-606.145360003901" fy="117.25162318032581" r="42.79" xlink:href="#Dégradé_sans_nom_185"/><radialGradient id="Dégradé_sans_nom_8-3" cx="268.12" cy="104.4" fx="268.1223131589459" fy="114.49865621857107" r="32.56" xlink:href="#Dégradé_sans_nom_8"/><radialGradient id="Dégradé_sans_nom_8-4" cx="330.38" cy="174.98" fx="330.37545711436087" fy="174.97912933549833" r="42.6" xlink:href="#Dégradé_sans_nom_8"/><radialGradient id="Dégradé_sans_nom_9" cx="398.38" cy="292.57" fx="384.8681241185331" fy="292.5666894399301" r="55.13" xlink:href="#Dégradé_sans_nom_8"/><radialGradient id="Dégradé_sans_nom_186" cx="-642.56" cy="-89.88" fx="-664.3406282746837" fy="-77.8046125402636" r="53.83" xlink:href="#Dégradé_sans_nom_185"/><radialGradient id="Dégradé_sans_nom_184" cx="-755.05" cy="-120.63" fx="-755.0494264130975" fy="-111.86833887085359" r="40.23" xlink:href="#Dégradé_sans_nom_185"/></defs><circle cx="245.7" cy="278.56" r="67.01" style="fill:url(#Dégradé_sans_nom_3)"/><path d="M19.87,412.64a25.3,25.3,0,0,0-1.79-10.36q-1.78-3.94-8.22-3.94H7v-2.86H19.87q5.43,0,8.22,1.58A8.57,8.57,0,0,1,32,401.92h.72a22.51,22.51,0,0,1,6.72-5.29Q44,394.05,52,394.05a21.91,21.91,0,0,1,11.23,2.79,24.63,24.63,0,0,1,8,7.51,35.31,35.31,0,0,1,4.86,11.08,57.37,57.37,0,0,1,0,27.32,33.56,33.56,0,0,1-5,11.08,25.24,25.24,0,0,1-8.44,7.51,24.77,24.77,0,0,1-12.09,2.78,34.51,34.51,0,0,1-10.29-1.35,59,59,0,0,1-7.58-2.94v30H19.87Zm12.87,41.47q3.28,1.58,6.79,2.94a18.86,18.86,0,0,0,6.79,1.35,14.33,14.33,0,0,0,8.23-2.28,17.53,17.53,0,0,0,5.5-6.22,31.48,31.48,0,0,0,3.15-9.3,63.33,63.33,0,0,0,1-11.51,67.34,67.34,0,0,0-.93-11.51,31.37,31.37,0,0,0-3-9.3,18.26,18.26,0,0,0-5.15-6.22,12,12,0,0,0-7.37-2.29,17.67,17.67,0,0,0-5.29.72,15.46,15.46,0,0,0-4.07,1.93,17.6,17.6,0,0,0-3.22,2.79,23.75,23.75,0,0,0-2.43,3.14Z" transform="translate(-4.43 -2.56)" style="fill:#3d3b30"/><path d="M136.42,462.69l-5-6.43h-.71a22,22,0,0,1-7,5.29q-4.86,2.58-13,2.57a26.65,26.65,0,0,1-6.58-.92A19.84,19.84,0,0,1,97.38,460a18.84,18.84,0,0,1-5.3-6.15,19.88,19.88,0,0,1-2.14-9.73,15.37,15.37,0,0,1,3-9.72,21,21,0,0,1,8-6.15A42.15,42.15,0,0,1,112.53,425a99.2,99.2,0,0,1,13.88-.93h4.29a54.09,54.09,0,0,0-1.15-12.22,20.1,20.1,0,0,0-3.14-7.44,10.49,10.49,0,0,0-4.79-3.65,17.64,17.64,0,0,0-5.94-1,18.5,18.5,0,0,0-10.08,2.58q-4.08,2.56-5.65,9.58H93.52a53.81,53.81,0,0,1,.42-6.94,10.3,10.3,0,0,1,3.15-5.93,11.4,11.4,0,0,1,3.65-2.29A26.41,26.41,0,0,1,106,395.2a56.49,56.49,0,0,1,6.07-.86q3.23-.29,6.51-.29a40.12,40.12,0,0,1,9.37,1.08,17.7,17.7,0,0,1,8,4.29,22,22,0,0,1,5.57,9.15c1.38,3.95,2.08,9.13,2.08,15.51v38.61ZM130.7,429.8h-4.29q-10.72,0-16.81,3.94t-6.07,10.36a14.75,14.75,0,0,0,1.14,6,12.71,12.71,0,0,0,3,4.29,11.44,11.44,0,0,0,4.29,2.5,16.47,16.47,0,0,0,5.15.79q5.3,0,8.37-2.65a27.9,27.9,0,0,0,5.22-5.93Z" transform="translate(-4.43 -2.56)" style="fill:#3d3b30"/><path d="M164.59,412.64a25.3,25.3,0,0,0-1.79-10.36c-1.2-2.63-3.93-3.94-8.22-3.94h-1.43v-2.86h11.44q5.43,0,8.22,1.58a8.57,8.57,0,0,1,3.93,4.86h.72a23.43,23.43,0,0,1,6.43-5.29,20.52,20.52,0,0,1,10.73-2.58,23,23,0,0,1,4.57.5,10.43,10.43,0,0,1,4,1.65,12.27,12.27,0,0,1,2.71,2.72,29.64,29.64,0,0,1,2.29,3.71l-5.72,4.29a9.36,9.36,0,0,0-4.65-3.21,20.36,20.36,0,0,0-6.79-1.08,16.34,16.34,0,0,0-7.86,1.93,15.48,15.48,0,0,0-5.72,5.22v52.91H164.59Z" transform="translate(-4.43 -2.56)" style="fill:#3d3b30"/><path d="M222.93,401.2h-10v-5.72h10V382.61l7.15-8.58h5.72v21.45H253v5.72H235.8v44.33q0,12.87,10,12.87a18.79,18.79,0,0,0,6.15-.85,33.35,33.35,0,0,0,4.58-2L258,458.4q-1.14.87-2.64,1.86a19.65,19.65,0,0,1-3.65,1.86,28.86,28.86,0,0,1-5,1.43,34,34,0,0,1-6.58.57q-7.58,0-12.37-4.43t-4.79-14.16Z" transform="translate(-4.43 -2.56)" style="fill:#3d3b30"/><path d="M295.43,464.12l-22.88-55.77a16.86,16.86,0,0,0-6.22-8.15,20.8,20.8,0,0,0-9.51-3.29v-2.86H269a17.85,17.85,0,0,1,10.65,3,19.23,19.23,0,0,1,6.51,8.43l16.3,39.61,18-49.62h7.15L299.72,472a52.66,52.66,0,0,1-4.5,9.65,23.61,23.61,0,0,1-5,5.94,14.85,14.85,0,0,1-5.79,2.93,28.52,28.52,0,0,1-6.86.78h-4.29V487a27.25,27.25,0,0,0,6-.64,14.58,14.58,0,0,0,5.22-2.29,17.27,17.27,0,0,0,4.36-4.57,35.21,35.21,0,0,0,3.72-7.51Z" transform="translate(-4.43 -2.56)" style="fill:#3d3b30"/><path d="M405.31,374.65h.21C405.39,374.57,405.31,374.56,405.31,374.65Z" transform="translate(-4.43 -2.56)" style="fill:#ff1d25"/><path d="M348.88,428.86a52,52,0,0,1,1.22-11.51,28.17,28.17,0,0,1,3.79-9.3,19.57,19.57,0,0,1,6.43-6.22,18,18,0,0,1,9.3-2.29,19.34,19.34,0,0,1,12.8,4.36q5.22,4.37,5.79,13.52h2.86c0-2.67,0-5-.07-6.94a48.55,48.55,0,0,0-.36-5.07,11.88,11.88,0,0,0-1.07-3.72,11.08,11.08,0,0,0-2.08-2.86,15.68,15.68,0,0,0-7.93-3.86,61,61,0,0,0-12.8-1.15,32.52,32.52,0,0,0-13.95,2.79,27.57,27.57,0,0,0-9.79,7.51,31.9,31.9,0,0,0-5.79,11.08,49.31,49.31,0,0,0,0,27.32A31.9,31.9,0,0,0,343,453.6c.11.13.23.26.34.4l9.76-5.64a29.1,29.1,0,0,1-3-8A52,52,0,0,1,348.88,428.86Z" transform="translate(-4.43 -2.56)" style="fill:#5c80bc"/><path d="M359.71,466a32.44,32.44,0,0,0,13.94,2.79,32,32,0,0,0,15.09-3.43q6.5-3.44,11.37-11.59l-2.86-2.14a29.54,29.54,0,0,1-8.44,8.43q-4.72,3-12.3,3a17.91,17.91,0,0,1-9.3-2.29,19.57,19.57,0,0,1-6.43-6.22c-.27-.42-.51-.87-.76-1.3l-9.76,5.63A27.63,27.63,0,0,0,359.71,466Z" transform="translate(-4.43 -2.56)" style="fill:#ee6352"/><path d="M421.67,385.24a53.52,53.52,0,0,0-.57-8.65A11.62,11.62,0,0,0,419,371.3a7.14,7.14,0,0,0-4-2.57,25.36,25.36,0,0,0-6.22-.65H395.93v2.86h2.86q6.43,0,8.22,3.94a25.3,25.3,0,0,1,1.79,10.36v31l12.87-7.43Z" transform="translate(-4.43 -2.56)" style="fill:#5c80bc"/><polygon points="411.26 418.55 411.26 464.8 424.13 464.8 424.13 411.12 411.26 418.55" style="fill:#ee6352"/><path d="M492.48,438.33q-4.71-4.44-13.87-8.15L470,426.6a25.51,25.51,0,0,1-8.44-5.36,9.53,9.53,0,0,1-3-6.79,8.74,8.74,0,0,1,3.65-7.15q3.64-2.87,10.65-2.86,8.58,0,13.37,4a17.45,17.45,0,0,1,5.94,11h2.86a75.22,75.22,0,0,0-.43-8.86,10.41,10.41,0,0,0-3.15-6.15,18.12,18.12,0,0,0-8-4.22,50.3,50.3,0,0,0-13.44-1.5,34.59,34.59,0,0,0-9.44,1.21,22.23,22.23,0,0,0-7.43,3.58,16.87,16.87,0,0,0-4.94,5.79,17.14,17.14,0,0,0-1.78,8,15.61,15.61,0,0,0,4.5,11.51,37.53,37.53,0,0,0,12.66,7.79l8.58,3.58a34.18,34.18,0,0,1,9.65,5.65,9.4,9.4,0,0,1,3.22,7.22,8.66,8.66,0,0,1-3.79,7.15q-3.79,2.85-11.94,2.86-9.17,0-14-4a17.26,17.26,0,0,1-6-11h-2.86a75.72,75.72,0,0,0,.42,8.87,10.41,10.41,0,0,0,3.15,6.15,18.21,18.21,0,0,0,8.15,4.22,54,54,0,0,0,14,1.5,39.23,39.23,0,0,0,9.94-1.22,23.88,23.88,0,0,0,7.93-3.57,18,18,0,0,0,5.22-5.79,16,16,0,0,0,1.93-8Q497.2,442.76,492.48,438.33Z" transform="translate(-4.43 -2.56)" style="fill:#ee6352"/><path d="M160.13,281.13a90,90,0,0,1,180,0" transform="translate(-4.43 -2.56)" style="fill:none;stroke-miterlimit:10;stroke-width:8px;fill-rule:evenodd;opacity:0.8;stroke:url(#Dégradé_sans_nom_12)"/><path d="M250.13,371.13a90,90,0,0,1-90-90" transform="translate(-4.43 -2.56)" style="fill:none;stroke-miterlimit:10;stroke-width:8px;fill-rule:evenodd;opacity:0.8;stroke:url(#Dégradé_sans_nom_180)"/><path d="M250.13,371.12a90,90,0,0,0,90-90" transform="translate(-4.43 -2.56)" style="fill:none;stroke-miterlimit:10;stroke-width:8px;fill-rule:evenodd;opacity:0.8;stroke:url(#Dégradé_sans_nom_179)"/><path d="M116.66,280.68a133.93,133.93,0,1,1,267.85,0" transform="translate(-4.43 -2.56)" style="fill:none;stroke-miterlimit:10;stroke-width:10px;fill-rule:evenodd;opacity:0.6000000000000001;stroke:url(#Dégradé_sans_nom_14)"/><path d="M250.59,414.6A133.92,133.92,0,0,1,116.66,280.68" transform="translate(-4.43 -2.56)" style="fill:none;stroke-miterlimit:10;stroke-width:10px;fill-rule:evenodd;opacity:0.6000000000000001;stroke:url(#Dégradé_sans_nom_181)"/><path d="M250.59,414.6A133.92,133.92,0,0,0,384.51,280.68" transform="translate(-4.43 -2.56)" style="fill:none;stroke-miterlimit:10;stroke-width:10px;fill-rule:evenodd;opacity:0.6000000000000001;stroke:url(#Dégradé_sans_nom_178)"/><path d="M69.54,281.85a180,180,0,0,1,360,0" transform="translate(-4.43 -2.56)" style="fill:none;stroke-miterlimit:10;stroke-width:12px;fill-rule:evenodd;opacity:0.4;stroke:url(#Dégradé_sans_nom_16)"/><path d="M249.54,461.85a180,180,0,0,1-180-180" transform="translate(-4.43 -2.56)" style="fill:none;stroke-miterlimit:10;stroke-width:12px;fill-rule:evenodd;opacity:0.4;stroke:url(#Dégradé_sans_nom_182)"/><path d="M249.54,461.85a180,180,0,0,0,180-180" transform="translate(-4.43 -2.56)" style="fill:none;stroke-miterlimit:10;stroke-width:12px;fill-rule:evenodd;opacity:0.4;stroke:url(#Dégradé_sans_nom_177)"/><path d="M25.13,281.85c0-124.26,100.73-225,225-225s225,100.74,225,225" transform="translate(-4.43 -2.56)" style="fill:none;stroke-miterlimit:10;stroke-width:14px;fill-rule:evenodd;opacity:0.2;stroke:url(#Dégradé_sans_nom_18)"/><path d="M250.13,506.85c-124.27,0-225-100.73-225-225" transform="translate(-4.43 -2.56)" style="fill:none;stroke-miterlimit:10;stroke-width:14px;fill-rule:evenodd;opacity:0.2;stroke:url(#Dégradé_sans_nom_175)"/><path d="M250.13,506.85c124.26,0,225-100.73,225-225" transform="translate(-4.43 -2.56)" style="fill:none;stroke-miterlimit:10;stroke-width:14px;fill-rule:evenodd;opacity:0.2;stroke:url(#Dégradé_sans_nom_176)"/><circle cx="173.56" cy="156.46" r="45.1" style="fill:url(#Dégradé_sans_nom_185)"/><circle cx="78.77" cy="114.46" r="39.2" style="fill:url(#Dégradé_sans_nom_6)"/><circle cx="438.7" cy="183.34" r="47.4" style="fill:url(#Dégradé_sans_nom_8)"/><circle cx="380.7" cy="81.55" r="39.92" style="fill:url(#Dégradé_sans_nom_8-2)"/><circle cx="31.33" cy="330.14" r="31.33" style="fill:url(#Dégradé_sans_nom_187)"/><circle cx="205.24" cy="42.79" r="42.79" style="fill:url(#Dégradé_sans_nom_6-2)"/><circle cx="268.12" cy="104.4" r="32.56" style="fill:url(#Dégradé_sans_nom_8-3)"/><circle cx="335.82" cy="168.51" r="42.6" style="fill:url(#Dégradé_sans_nom_8-4)"/><circle cx="398.38" cy="292.57" r="55.13" style="fill:url(#Dégradé_sans_nom_9)"/><circle cx="78.9" cy="234.44" r="53.83" style="fill:url(#Dégradé_sans_nom_186)"/><circle cx="130.46" cy="339.04" r="40.23" style="fill:url(#Dégradé_sans_nom_184)"/></svg>